<?xml version="1.0" encoding="UTF-8" standalone="no"?>
<!DOCTYPE svg PUBLIC "-//W3C//DTD SVG 1.1//EN"
 "http://www.w3.org/Graphics/SVG/1.1/DTD/svg11.dtd">
<!-- Generated by graphviz version 2.43.0 (0)
 -->
<!-- Title: App::Listeners::SendNotificationListener::handle Pages: 1 -->
<svg width="632pt" height="86pt"
 viewBox="0.00 0.00 632.00 86.00" xmlns="http://www.w3.org/2000/svg" xmlns:xlink="http://www.w3.org/1999/xlink">
<g id="graph0" class="graph" transform="scale(1 1) rotate(0) translate(4 82)">
<title>App::Listeners::SendNotificationListener::handle</title>
<!-- Node1 -->
<g id="Node000001" class="node">
<title>Node1</title>
<g id="a_Node000001"><a xlink:title="Handle the event.">
<polygon fill="#999999" stroke="#666666" points="172,-54 0,-54 0,-24 172,-24 172,-54"/>
<text text-anchor="start" x="8" y="-42" font-family="Helvetica,sans-Serif" font-size="10.00">App::Listeners::SendNotification</text>
<text text-anchor="middle" x="86" y="-31" font-family="Helvetica,sans-Serif" font-size="10.00">Listener::handle</text>
</a>
</g>
</g>
<!-- Node2 -->
<g id="Node000002" class="node">
<title>Node2</title>
<g id="a_Node000002"><a xlink:href="classApp_1_1Listeners_1_1SendNotificationListener.html#a020870893a1c98381dea0c7babe27efd" target="_top" xlink:title="Handle ProjectIdeaEvaluated event.">
<polygon fill="white" stroke="#666666" points="406,-78 208,-78 208,-48 406,-48 406,-78"/>
<text text-anchor="start" x="216" y="-66" font-family="Helvetica,sans-Serif" font-size="10.00">App::Listeners::SendNotification</text>
<text text-anchor="middle" x="307" y="-55" font-family="Helvetica,sans-Serif" font-size="10.00">Listener::handleProjectIdeaEvaluated</text>
</a>
</g>
</g>
<!-- Node1&#45;&gt;Node2 -->
<g id="edge1_Node000001_Node000002" class="edge">
<title>Node1&#45;&gt;Node2</title>
<g id="a_edge1_Node000001_Node000002"><a xlink:title=" ">
<path fill="none" stroke="#63b8ff" d="M172.3,-48.35C180.67,-49.27 189.24,-50.2 197.8,-51.14"/>
<polygon fill="#63b8ff" stroke="#63b8ff" points="197.52,-54.63 207.84,-52.24 198.28,-47.67 197.52,-54.63"/>
</a>
</g>
</g>
<!-- Node4 -->
<g id="Node000004" class="node">
<title>Node4</title>
<g id="a_Node000004"><a xlink:href="classApp_1_1Listeners_1_1SendNotificationListener.html#a7a040a01baf7859bc5609408f3048d02" target="_top" xlink:title="Handle UserCreated event.">
<polygon fill="white" stroke="#666666" points="393,-30 221,-30 221,0 393,0 393,-30"/>
<text text-anchor="start" x="229" y="-18" font-family="Helvetica,sans-Serif" font-size="10.00">App::Listeners::SendNotification</text>
<text text-anchor="middle" x="307" y="-7" font-family="Helvetica,sans-Serif" font-size="10.00">Listener::handleUserCreated</text>
</a>
</g>
</g>
<!-- Node1&#45;&gt;Node4 -->
<g id="edge3_Node000001_Node000004" class="edge">
<title>Node1&#45;&gt;Node4</title>
<g id="a_edge3_Node000001_Node000004"><a xlink:title=" ">
<path fill="none" stroke="#63b8ff" d="M172.3,-29.65C184.9,-28.27 197.96,-26.84 210.75,-25.44"/>
<polygon fill="#63b8ff" stroke="#63b8ff" points="211.38,-28.89 220.93,-24.32 210.61,-21.93 211.38,-28.89"/>
</a>
</g>
</g>
<!-- Node3 -->
<g id="Node000003" class="node">
<title>Node3</title>
<g id="a_Node000003"><a xlink:href="classApp_1_1Listeners_1_1SendNotificationListener.html#ab0c2ca7c8e6fff827b298243fb22fc20" target="_top" xlink:title="Resolve who should receive project notifications.">
<polygon fill="white" stroke="#666666" points="624,-78 442,-78 442,-48 624,-48 624,-78"/>
<text text-anchor="start" x="450" y="-66" font-family="Helvetica,sans-Serif" font-size="10.00">App::Listeners::SendNotification</text>
<text text-anchor="middle" x="533" y="-55" font-family="Helvetica,sans-Serif" font-size="10.00">Listener::resolveProjectRecipients</text>
</a>
</g>
</g>
<!-- Node2&#45;&gt;Node3 -->
<g id="edge2_Node000002_Node000003" class="edge">
<title>Node2&#45;&gt;Node3</title>
<g id="a_edge2_Node000002_Node000003"><a xlink:title=" ">
<path fill="none" stroke="#63b8ff" d="M406.25,-63C414.69,-63 423.24,-63 431.69,-63"/>
<polygon fill="#63b8ff" stroke="#63b8ff" points="431.95,-66.5 441.95,-63 431.95,-59.5 431.95,-66.5"/>
</a>
</g>
</g>
</g>
</svg>
