<?xml version="1.0" encoding="UTF-8" standalone="no"?>
<!DOCTYPE svg PUBLIC "-//W3C//DTD SVG 1.1//EN"
 "http://www.w3.org/Graphics/SVG/1.1/DTD/svg11.dtd">
<!-- Generated by graphviz version 2.43.0 (0)
 -->
<!-- Title: App::Models::Department::cities Pages: 1 -->
<svg width="352pt" height="98pt"
 viewBox="0.00 0.00 352.00 97.50" xmlns="http://www.w3.org/2000/svg" xmlns:xlink="http://www.w3.org/1999/xlink">
<g id="graph0" class="graph" transform="scale(1 1) rotate(0) translate(4 93.5)">
<title>App::Models::Department::cities</title>
<!-- Node1 -->
<g id="Node000001" class="node">
<title>Node1</title>
<g id="a_Node000001"><a xlink:title="Defines the one&#45;to&#45;many relationship between Department and City.">
<polygon fill="#999999" stroke="#666666" points="344,-62.5 203,-62.5 203,-32.5 344,-32.5 344,-62.5"/>
<text text-anchor="start" x="211" y="-50.5" font-family="Helvetica,sans-Serif" font-size="10.00">App::Models::Department</text>
<text text-anchor="middle" x="273.5" y="-39.5" font-family="Helvetica,sans-Serif" font-size="10.00">::cities</text>
</a>
</g>
</g>
<!-- Node2 -->
<g id="Node000002" class="node">
<title>Node2</title>
<g id="a_Node000002"><a xlink:href="classApp_1_1Http_1_1Controllers_1_1CityController.html#a0f9833c8cbb296b7e76ff5ed191db716" target="_top" xlink:title=" ">
<polygon fill="white" stroke="#666666" points="167,-89.5 0,-89.5 0,-59.5 167,-59.5 167,-89.5"/>
<text text-anchor="start" x="8" y="-77.5" font-family="Helvetica,sans-Serif" font-size="10.00">App::Http::Controllers</text>
<text text-anchor="middle" x="83.5" y="-66.5" font-family="Helvetica,sans-Serif" font-size="10.00">::CityController::byDepartment</text>
</a>
</g>
</g>
<!-- Node1&#45;&gt;Node2 -->
<g id="edge1_Node000001_Node000002" class="edge">
<title>Node1&#45;&gt;Node2</title>
<g id="a_edge1_Node000001_Node000002"><a xlink:title=" ">
<path fill="none" stroke="#63b8ff" d="M192.59,-58.98C184.17,-60.19 175.6,-61.42 167.15,-62.63"/>
<polygon fill="#63b8ff" stroke="#63b8ff" points="193.36,-62.4 202.76,-57.52 192.37,-55.47 193.36,-62.4"/>
</a>
</g>
</g>
<!-- Node3 -->
<g id="Node000003" class="node">
<title>Node3</title>
<g id="a_Node000003"><a xlink:href="classApp_1_1Http_1_1Controllers_1_1DepartmentController.html#a970a3485bfc0acad1bb9a333aca4e2c8" target="_top" xlink:title=" ">
<polygon fill="white" stroke="#666666" points="148,-41 19,-41 19,0 148,0 148,-41"/>
<text text-anchor="start" x="27" y="-29" font-family="Helvetica,sans-Serif" font-size="10.00">App::Http::Controllers</text>
<text text-anchor="start" x="27" y="-18" font-family="Helvetica,sans-Serif" font-size="10.00">::DepartmentController</text>
<text text-anchor="middle" x="83.5" y="-7" font-family="Helvetica,sans-Serif" font-size="10.00">::cities</text>
</a>
</g>
</g>
<!-- Node1&#45;&gt;Node3 -->
<g id="edge2_Node000001_Node000003" class="edge">
<title>Node1&#45;&gt;Node3</title>
<g id="a_edge2_Node000001_Node000003"><a xlink:title=" ">
<path fill="none" stroke="#63b8ff" d="M192.6,-36.02C177.78,-33.9 162.48,-31.7 148.22,-29.65"/>
<polygon fill="#63b8ff" stroke="#63b8ff" points="192.37,-39.53 202.76,-37.48 193.36,-32.6 192.37,-39.53"/>
</a>
</g>
</g>
</g>
</svg>
