<?xml version="1.0" encoding="UTF-8" standalone="no"?>
<!DOCTYPE svg PUBLIC "-//W3C//DTD SVG 1.1//EN"
 "http://www.w3.org/Graphics/SVG/1.1/DTD/svg11.dtd">
<!-- Generated by graphviz version 2.43.0 (0)
 -->
<!-- Title: App::Mail::GenericNotificationMail Pages: 1 -->
<svg width="198pt" height="220pt"
 viewBox="0.00 0.00 198.00 220.00" xmlns="http://www.w3.org/2000/svg" xmlns:xlink="http://www.w3.org/1999/xlink">
<g id="graph0" class="graph" transform="scale(1 1) rotate(0) translate(4 216)">
<title>App::Mail::GenericNotificationMail</title>
<!-- Node1 -->
<g id="Node000001" class="node">
<title>Node1</title>
<g id="a_Node000001"><a xlink:title=" ">
<polygon fill="#999999" stroke="transparent" points="190,-127 0,-127 0,0 190,0 190,-127"/>
<text text-anchor="start" x="11.5" y="-114.5" font-family="Helvetica,sans-Serif" font-size="10.00">App::Mail::GenericNotificationMail</text>
<text text-anchor="start" x="93" y="-99.5" font-family="Helvetica,sans-Serif" font-size="10.00"> </text>
<text text-anchor="start" x="4" y="-84.5" font-family="Helvetica,sans-Serif" font-size="10.00">+</text>
<text text-anchor="start" x="17" y="-84.5" font-family="Helvetica,sans-Serif" font-size="10.00">__construct(public</text>
<text text-anchor="start" x="17" y="-73.5" font-family="Helvetica,sans-Serif" font-size="10.00"> $subject, public $view,</text>
<text text-anchor="start" x="17" y="-62.5" font-family="Helvetica,sans-Serif" font-size="10.00"> public array $data=[],</text>
<text text-anchor="start" x="17" y="-51.5" font-family="Helvetica,sans-Serif" font-size="10.00"> public array $attachmentsList=[])</text>
<text text-anchor="start" x="4" y="-36.5" font-family="Helvetica,sans-Serif" font-size="10.00">+</text>
<text text-anchor="start" x="17" y="-36.5" font-family="Helvetica,sans-Serif" font-size="10.00">attachments()</text>
<text text-anchor="start" x="4" y="-21.5" font-family="Helvetica,sans-Serif" font-size="10.00">+</text>
<text text-anchor="start" x="17" y="-21.5" font-family="Helvetica,sans-Serif" font-size="10.00">content()</text>
<text text-anchor="start" x="4" y="-6.5" font-family="Helvetica,sans-Serif" font-size="10.00">+</text>
<text text-anchor="start" x="17" y="-6.5" font-family="Helvetica,sans-Serif" font-size="10.00">envelope()</text>
<polygon fill="#666666" stroke="#666666" points="0,-109.5 0,-109.5 190,-109.5 190,-109.5 0,-109.5"/>
<polygon fill="#666666" stroke="#666666" points="0,-94.5 0,-94.5 190,-94.5 190,-94.5 0,-94.5"/>
<polygon fill="none" stroke="#666666" points="0,0 0,-127 190,-127 190,0 0,0"/>
</a>
</g>
</g>
<!-- Node2 -->
<g id="Node000002" class="node">
<title>Node2</title>
<g id="a_Node000002"><a xlink:title=" ">
<polygon fill="white" stroke="transparent" points="80.5,-212 27.5,-212 27.5,-163 80.5,-163 80.5,-212"/>
<text text-anchor="start" x="33" y="-199.5" font-family="Helvetica,sans-Serif" font-size="10.00">Mailable</text>
<text text-anchor="start" x="52.5" y="-184.5" font-family="Helvetica,sans-Serif" font-size="10.00"> </text>
<text text-anchor="start" x="52.5" y="-169.5" font-family="Helvetica,sans-Serif" font-size="10.00"> </text>
<polygon fill="#666666" stroke="#666666" points="28,-194.5 28,-194.5 81,-194.5 81,-194.5 28,-194.5"/>
<polygon fill="#666666" stroke="#666666" points="28,-179.5 28,-179.5 81,-179.5 81,-179.5 28,-179.5"/>
<polygon fill="none" stroke="#666666" points="27.5,-163 27.5,-212 80.5,-212 80.5,-163 27.5,-163"/>
</a>
</g>
</g>
<!-- Node2&#45;&gt;Node1 -->
<g id="edge1_Node000001_Node000002" class="edge">
<title>Node2&#45;&gt;Node1</title>
<g id="a_edge1_Node000001_Node000002"><a xlink:title=" ">
<path fill="none" stroke="#63b8ff" d="M65.18,-153.23C67.9,-145.14 70.9,-136.22 73.91,-127.25"/>
<polygon fill="none" stroke="#63b8ff" points="61.77,-152.38 61.91,-162.98 68.41,-154.61 61.77,-152.38"/>
</a>
</g>
</g>
<!-- Node3 -->
<g id="Node000003" class="node">
<title>Node3</title>
<g id="a_Node000003"><a xlink:title=" ">
<polygon fill="white" stroke="transparent" points="173.5,-212 98.5,-212 98.5,-163 173.5,-163 173.5,-212"/>
<text text-anchor="start" x="104" y="-199.5" font-family="Helvetica,sans-Serif" font-size="10.00">ShouldQueue</text>
<text text-anchor="start" x="134.5" y="-184.5" font-family="Helvetica,sans-Serif" font-size="10.00"> </text>
<text text-anchor="start" x="134.5" y="-169.5" font-family="Helvetica,sans-Serif" font-size="10.00"> </text>
<polygon fill="#666666" stroke="#666666" points="99,-194.5 99,-194.5 174,-194.5 174,-194.5 99,-194.5"/>
<polygon fill="#666666" stroke="#666666" points="99,-179.5 99,-179.5 174,-179.5 174,-179.5 99,-179.5"/>
<polygon fill="none" stroke="#666666" points="98.5,-163 98.5,-212 173.5,-212 173.5,-163 98.5,-163"/>
</a>
</g>
</g>
<!-- Node3&#45;&gt;Node1 -->
<g id="edge2_Node000001_Node000003" class="edge">
<title>Node3&#45;&gt;Node1</title>
<g id="a_edge2_Node000001_Node000003"><a xlink:title=" ">
<path fill="none" stroke="#63b8ff" d="M124.82,-153.23C122.1,-145.14 119.1,-136.22 116.09,-127.25"/>
<polygon fill="none" stroke="#63b8ff" points="121.59,-154.61 128.09,-162.98 128.23,-152.38 121.59,-154.61"/>
</a>
</g>
</g>
</g>
</svg>
