<?xml version="1.0" encoding="UTF-8" standalone="no"?>
<!DOCTYPE svg PUBLIC "-//W3C//DTD SVG 1.1//EN"
 "http://www.w3.org/Graphics/SVG/1.1/DTD/svg11.dtd">
<!-- Generated by graphviz version 2.43.0 (0)
 -->
<!-- Title: App::Models::Project::professors Pages: 1 -->
<svg width="931pt" height="570pt"
 viewBox="0.00 0.00 931.00 570.00" xmlns="http://www.w3.org/2000/svg" xmlns:xlink="http://www.w3.org/1999/xlink">
<g id="graph0" class="graph" transform="scale(1 1) rotate(0) translate(4 566)">
<title>App::Models::Project::professors</title>
<!-- Node1 -->
<g id="Node000001" class="node">
<title>Node1</title>
<g id="a_Node000001"><a xlink:title=" ">
<polygon fill="#999999" stroke="#666666" points="923,-300.5 807,-300.5 807,-270.5 923,-270.5 923,-300.5"/>
<text text-anchor="start" x="815" y="-288.5" font-family="Helvetica,sans-Serif" font-size="10.00">App::Models::Project</text>
<text text-anchor="middle" x="865" y="-277.5" font-family="Helvetica,sans-Serif" font-size="10.00">::professors</text>
</a>
</g>
</g>
<!-- Node2 -->
<g id="Node000002" class="node">
<title>Node2</title>
<g id="a_Node000002"><a xlink:href="classApp_1_1Http_1_1Controllers_1_1ProjectController.html#a2a1b70d892c5194d1203a6449baadfac" target="_top" xlink:title="Guard access to edit/update operations ensuring the user participates in the project.">
<polygon fill="white" stroke="#666666" points="756,-562 600,-562 600,-521 756,-521 756,-562"/>
<text text-anchor="start" x="608" y="-550" font-family="Helvetica,sans-Serif" font-size="10.00">App::Http::Controllers</text>
<text text-anchor="start" x="608" y="-539" font-family="Helvetica,sans-Serif" font-size="10.00">::ProjectController::authorize</text>
<text text-anchor="middle" x="678" y="-528" font-family="Helvetica,sans-Serif" font-size="10.00">ProjectAccess</text>
</a>
</g>
</g>
<!-- Node1&#45;&gt;Node2 -->
<g id="edge1_Node000001_Node000002" class="edge">
<title>Node1&#45;&gt;Node2</title>
<g id="a_edge1_Node000001_Node000002"><a xlink:title=" ">
<path fill="none" stroke="#63b8ff" d="M860.71,-310.85C853.32,-357.51 831.07,-457.25 771,-512.5 766.56,-516.58 761.55,-520.09 756.22,-523.1"/>
<polygon fill="#63b8ff" stroke="#63b8ff" points="864.21,-311.11 862.21,-300.71 857.29,-310.09 864.21,-311.11"/>
</a>
</g>
</g>
<!-- Node3 -->
<g id="Node000003" class="node">
<title>Node3</title>
<g id="a_Node000003"><a xlink:href="classApp_1_1Http_1_1Controllers_1_1ProjectController.html#a97e2b94a18babf3ec770fb491b12fa5a" target="_top" xlink:title=" ">
<polygon fill="white" stroke="#666666" points="768.5,-503 587.5,-503 587.5,-462 768.5,-462 768.5,-503"/>
<text text-anchor="start" x="595.5" y="-491" font-family="Helvetica,sans-Serif" font-size="10.00">App::Http::Controllers</text>
<text text-anchor="start" x="595.5" y="-480" font-family="Helvetica,sans-Serif" font-size="10.00">::ProjectController::buildPrograms</text>
<text text-anchor="middle" x="678" y="-469" font-family="Helvetica,sans-Serif" font-size="10.00">AndLinesReportState</text>
</a>
</g>
</g>
<!-- Node1&#45;&gt;Node3 -->
<g id="edge2_Node000001_Node000003" class="edge">
<title>Node1&#45;&gt;Node3</title>
<g id="a_edge2_Node000001_Node000003"><a xlink:title=" ">
<path fill="none" stroke="#63b8ff" d="M856.78,-310.4C844.9,-347.05 817.75,-415.29 771,-453.5 767.24,-456.57 763.15,-459.32 758.86,-461.78"/>
<polygon fill="#63b8ff" stroke="#63b8ff" points="860.23,-311.12 859.86,-300.53 853.54,-309.04 860.23,-311.12"/>
</a>
</g>
</g>
<!-- Node7 -->
<g id="Node000007" class="node">
<title>Node7</title>
<g id="a_Node000007"><a xlink:href="classApp_1_1Http_1_1Controllers_1_1ProjectController.html#a8eca93212c12c16305928089124a9a7f" target="_top" xlink:title="Build a portable snapshot so each version preserves the project state of that moment.">
<polygon fill="white" stroke="#666666" points="762,-444 594,-444 594,-403 762,-403 762,-444"/>
<text text-anchor="start" x="602" y="-432" font-family="Helvetica,sans-Serif" font-size="10.00">App::Http::Controllers</text>
<text text-anchor="start" x="602" y="-421" font-family="Helvetica,sans-Serif" font-size="10.00">::ProjectController::buildProject</text>
<text text-anchor="middle" x="678" y="-410" font-family="Helvetica,sans-Serif" font-size="10.00">VersionSnapshot</text>
</a>
</g>
</g>
<!-- Node1&#45;&gt;Node7 -->
<g id="edge6_Node000001_Node000007" class="edge">
<title>Node1&#45;&gt;Node7</title>
<g id="a_edge6_Node000001_Node000007"><a xlink:title=" ">
<path fill="none" stroke="#63b8ff" d="M849.17,-309.38C832.84,-333.81 804.42,-371.24 771,-393.5 765.69,-397.04 759.92,-400.19 753.96,-402.99"/>
<polygon fill="#63b8ff" stroke="#63b8ff" points="852.29,-311 854.82,-300.71 846.43,-307.18 852.29,-311"/>
</a>
</g>
</g>
<!-- Node8 -->
<g id="Node000008" class="node">
<title>Node8</title>
<g id="a_Node000008"><a xlink:href="classApp_1_1Http_1_1Controllers_1_1ProjectController.html#a1a5cbe33cd3fb125fa815009ad08ece0" target="_top" xlink:title="Display the edit form with the existing project information.">
<polygon fill="white" stroke="#666666" points="742.5,-384.5 613.5,-384.5 613.5,-354.5 742.5,-354.5 742.5,-384.5"/>
<text text-anchor="start" x="621.5" y="-372.5" font-family="Helvetica,sans-Serif" font-size="10.00">App::Http::Controllers</text>
<text text-anchor="middle" x="678" y="-361.5" font-family="Helvetica,sans-Serif" font-size="10.00">::ProjectController::edit</text>
</a>
</g>
</g>
<!-- Node1&#45;&gt;Node8 -->
<g id="edge7_Node000001_Node000008" class="edge">
<title>Node1&#45;&gt;Node8</title>
<g id="a_edge7_Node000001_Node000008"><a xlink:title=" ">
<path fill="none" stroke="#63b8ff" d="M836.51,-306.56C818.66,-319.38 794.43,-335.2 771,-345.5 762.08,-349.42 752.39,-352.81 742.75,-355.7"/>
<polygon fill="#63b8ff" stroke="#63b8ff" points="838.72,-309.28 844.73,-300.55 834.59,-303.63 838.72,-309.28"/>
</a>
</g>
</g>
<!-- Node9 -->
<g id="Node000009" class="node">
<title>Node9</title>
<g id="a_Node000009"><a xlink:href="classApp_1_1Http_1_1Controllers_1_1ProjectEvaluationController.html#af13e4ab54e821c1878ecfd0317015cdf" target="_top" xlink:title=" ">
<polygon fill="white" stroke="#666666" points="756,-336 600,-336 600,-295 756,-295 756,-336"/>
<text text-anchor="start" x="608" y="-324" font-family="Helvetica,sans-Serif" font-size="10.00">App::Http::Controllers</text>
<text text-anchor="start" x="608" y="-313" font-family="Helvetica,sans-Serif" font-size="10.00">::ProjectEvaluationController</text>
<text text-anchor="middle" x="678" y="-302" font-family="Helvetica,sans-Serif" font-size="10.00">::evaluate</text>
</a>
</g>
</g>
<!-- Node1&#45;&gt;Node9 -->
<g id="edge8_Node000001_Node000009" class="edge">
<title>Node1&#45;&gt;Node9</title>
<g id="a_edge8_Node000001_Node000009"><a xlink:title=" ">
<path fill="none" stroke="#63b8ff" d="M797.03,-296.36C783.79,-298.51 769.79,-300.78 756.25,-302.97"/>
<polygon fill="#63b8ff" stroke="#63b8ff" points="797.67,-299.8 806.98,-294.75 796.55,-292.89 797.67,-299.8"/>
</a>
</g>
</g>
<!-- Node10 -->
<g id="Node000010" class="node">
<title>Node10</title>
<g id="a_Node000010"><a xlink:href="classApp_1_1Services_1_1Projects_1_1ProjectIdeaService.html#afa8fac86698282ebab84bffb78c589a2" target="_top" xlink:title="Determines if a duplicate project already exists for the provided professor lineup.">
<polygon fill="white" stroke="#666666" points="758,-277 598,-277 598,-236 758,-236 758,-277"/>
<text text-anchor="start" x="606" y="-265" font-family="Helvetica,sans-Serif" font-size="10.00">App::Services::Projects</text>
<text text-anchor="start" x="606" y="-254" font-family="Helvetica,sans-Serif" font-size="10.00">::ProjectIdeaService::</text>
<text text-anchor="middle" x="678" y="-243" font-family="Helvetica,sans-Serif" font-size="10.00">hasDuplicateProfessorProject</text>
</a>
</g>
</g>
<!-- Node1&#45;&gt;Node10 -->
<g id="edge9_Node000001_Node000010" class="edge">
<title>Node1&#45;&gt;Node10</title>
<g id="a_edge9_Node000001_Node000010"><a xlink:title=" ">
<path fill="none" stroke="#63b8ff" d="M797.06,-275.01C784.47,-273.03 771.2,-270.95 758.28,-268.93"/>
<polygon fill="#63b8ff" stroke="#63b8ff" points="796.56,-278.47 806.98,-276.56 797.65,-271.56 796.56,-278.47"/>
</a>
</g>
</g>
<!-- Node12 -->
<g id="Node000012" class="node">
<title>Node12</title>
<g id="a_Node000012"><a xlink:href="classApp_1_1Http_1_1Controllers_1_1ProjectController.html#af24f9d92a808cef32d6899f302fa53fd" target="_top" xlink:title="Persist the project data for a professor either creating or updating a record.">
<polygon fill="white" stroke="#666666" points="749.5,-218 606.5,-218 606.5,-177 749.5,-177 749.5,-218"/>
<text text-anchor="start" x="614.5" y="-206" font-family="Helvetica,sans-Serif" font-size="10.00">App::Http::Controllers</text>
<text text-anchor="start" x="614.5" y="-195" font-family="Helvetica,sans-Serif" font-size="10.00">::ProjectController::persist</text>
<text text-anchor="middle" x="678" y="-184" font-family="Helvetica,sans-Serif" font-size="10.00">ProfessorProject</text>
</a>
</g>
</g>
<!-- Node1&#45;&gt;Node12 -->
<g id="edge11_Node000001_Node000012" class="edge">
<title>Node1&#45;&gt;Node12</title>
<g id="a_edge11_Node000001_Node000012"><a xlink:title=" ">
<path fill="none" stroke="#63b8ff" d="M835.23,-264.49C817.4,-252.18 793.65,-237.03 771,-226.5 764.17,-223.32 756.89,-220.36 749.55,-217.65"/>
<polygon fill="#63b8ff" stroke="#63b8ff" points="833.28,-267.39 843.47,-270.27 837.29,-261.66 833.28,-267.39"/>
</a>
</g>
</g>
<!-- Node13 -->
<g id="Node000013" class="node">
<title>Node13</title>
<g id="a_Node000013"><a xlink:href="classApp_1_1Http_1_1Controllers_1_1ProjectVersionController.html#a66279c21a7515cf7b7e7227dc4bcaa2b" target="_top" xlink:title="Build a compatible snapshot for legacy and new versions.">
<polygon fill="white" stroke="#666666" points="748,-159 608,-159 608,-118 748,-118 748,-159"/>
<text text-anchor="start" x="616" y="-147" font-family="Helvetica,sans-Serif" font-size="10.00">App::Http::Controllers</text>
<text text-anchor="start" x="616" y="-136" font-family="Helvetica,sans-Serif" font-size="10.00">::ProjectVersionController</text>
<text text-anchor="middle" x="678" y="-125" font-family="Helvetica,sans-Serif" font-size="10.00">::resolveSnapshot</text>
</a>
</g>
</g>
<!-- Node1&#45;&gt;Node13 -->
<g id="edge12_Node000001_Node000013" class="edge">
<title>Node1&#45;&gt;Node13</title>
<g id="a_edge12_Node000001_Node000013"><a xlink:title=" ">
<path fill="none" stroke="#63b8ff" d="M851.17,-261.74C835.59,-235.07 806.9,-192.29 771,-167.5 764.11,-162.74 756.4,-158.74 748.46,-155.37"/>
<polygon fill="#63b8ff" stroke="#63b8ff" points="848.13,-263.48 856.12,-270.44 854.22,-260.02 848.13,-263.48"/>
</a>
</g>
</g>
<!-- Node16 -->
<g id="Node000016" class="node">
<title>Node16</title>
<g id="a_Node000016"><a xlink:href="classApp_1_1Http_1_1Controllers_1_1BankApprovedIdeasForProfessorsController.html#aeb7ae4b548502b0d6d8ff88d43a38acf" target="_top" xlink:title="Los profesores pueden ver el detalle de una idea aprobada sin depender de la ventana del calendario.">
<polygon fill="white" stroke="#666666" points="771,-100 585,-100 585,-59 771,-59 771,-100"/>
<text text-anchor="start" x="593" y="-88" font-family="Helvetica,sans-Serif" font-size="10.00">App::Http::Controllers</text>
<text text-anchor="start" x="593" y="-77" font-family="Helvetica,sans-Serif" font-size="10.00">::BankApprovedIdeasForProfessors</text>
<text text-anchor="middle" x="678" y="-66" font-family="Helvetica,sans-Serif" font-size="10.00">Controller::show</text>
</a>
</g>
</g>
<!-- Node1&#45;&gt;Node16 -->
<g id="edge15_Node000001_Node000016" class="edge">
<title>Node1&#45;&gt;Node16</title>
<g id="a_edge15_Node000001_Node000016"><a xlink:title=" ">
<path fill="none" stroke="#63b8ff" d="M857.57,-260.64C846.4,-222.4 819.81,-149.3 771,-108.5 767.27,-105.39 763.21,-102.6 758.94,-100.12"/>
<polygon fill="#63b8ff" stroke="#63b8ff" points="854.24,-261.76 860.31,-270.44 860.99,-259.87 854.24,-261.76"/>
</a>
</g>
</g>
<!-- Node17 -->
<g id="Node000017" class="node">
<title>Node17</title>
<g id="a_Node000017"><a xlink:href="classApp_1_1Http_1_1Controllers_1_1BankApprovedIdeasForStudentsController.html#a1da16a4a5c61221cfdcd5ec9887a8a9e" target="_top" xlink:title=" ">
<polygon fill="white" stroke="#666666" points="767,-41 589,-41 589,0 767,0 767,-41"/>
<text text-anchor="start" x="597" y="-29" font-family="Helvetica,sans-Serif" font-size="10.00">App::Http::Controllers</text>
<text text-anchor="start" x="597" y="-18" font-family="Helvetica,sans-Serif" font-size="10.00">::BankApprovedIdeasForStudents</text>
<text text-anchor="middle" x="678" y="-7" font-family="Helvetica,sans-Serif" font-size="10.00">Controller::show</text>
</a>
</g>
</g>
<!-- Node1&#45;&gt;Node17 -->
<g id="edge16_Node000001_Node000017" class="edge">
<title>Node1&#45;&gt;Node17</title>
<g id="a_edge16_Node000001_Node000017"><a xlink:title=" ">
<path fill="none" stroke="#63b8ff" d="M861.17,-260.16C854.45,-212.13 833.16,-107.45 771,-49.5 767.69,-46.42 764.06,-43.66 760.21,-41.2"/>
<polygon fill="#63b8ff" stroke="#63b8ff" points="857.73,-260.84 862.48,-270.31 864.67,-259.94 857.73,-260.84"/>
</a>
</g>
</g>
<!-- Node4 -->
<g id="Node000004" class="node">
<title>Node4</title>
<g id="a_Node000004"><a xlink:href="classApp_1_1Http_1_1Controllers_1_1ProjectController.html#a8f4b9392fade0bdec576281c18000164" target="_top" xlink:title=" ">
<polygon fill="white" stroke="#666666" points="540.5,-503 385.5,-503 385.5,-462 540.5,-462 540.5,-503"/>
<text text-anchor="start" x="393.5" y="-491" font-family="Helvetica,sans-Serif" font-size="10.00">App::Http::Controllers</text>
<text text-anchor="start" x="393.5" y="-480" font-family="Helvetica,sans-Serif" font-size="10.00">::ProjectController::compose</text>
<text text-anchor="middle" x="463" y="-469" font-family="Helvetica,sans-Serif" font-size="10.00">ProjectReportState</text>
</a>
</g>
</g>
<!-- Node3&#45;&gt;Node4 -->
<g id="edge3_Node000003_Node000004" class="edge">
<title>Node3&#45;&gt;Node4</title>
<g id="a_edge3_Node000003_Node000004"><a xlink:title=" ">
<path fill="none" stroke="#63b8ff" d="M577.08,-482.5C564.89,-482.5 552.58,-482.5 540.79,-482.5"/>
<polygon fill="#63b8ff" stroke="#63b8ff" points="577.29,-486 587.29,-482.5 577.29,-479 577.29,-486"/>
</a>
</g>
</g>
<!-- Node5 -->
<g id="Node000005" class="node">
<title>Node5</title>
<g id="a_Node000005"><a xlink:href="classApp_1_1Http_1_1Controllers_1_1ProjectController.html#a910bc101d1d62734a0ca5ce2a0120e6f" target="_top" xlink:title="Build the report state rendered below the projects list.">
<polygon fill="white" stroke="#666666" points="341,-503 173,-503 173,-462 341,-462 341,-503"/>
<text text-anchor="start" x="181" y="-491" font-family="Helvetica,sans-Serif" font-size="10.00">App::Http::Controllers</text>
<text text-anchor="start" x="181" y="-480" font-family="Helvetica,sans-Serif" font-size="10.00">::ProjectController::buildProject</text>
<text text-anchor="middle" x="257" y="-469" font-family="Helvetica,sans-Serif" font-size="10.00">ReportState</text>
</a>
</g>
</g>
<!-- Node4&#45;&gt;Node5 -->
<g id="edge4_Node000004_Node000005" class="edge">
<title>Node4&#45;&gt;Node5</title>
<g id="a_edge4_Node000004_Node000005"><a xlink:title=" ">
<path fill="none" stroke="#63b8ff" d="M375.18,-482.5C363.89,-482.5 352.35,-482.5 341.12,-482.5"/>
<polygon fill="#63b8ff" stroke="#63b8ff" points="375.46,-486 385.46,-482.5 375.46,-479 375.46,-486"/>
</a>
</g>
</g>
<!-- Node6 -->
<g id="Node000006" class="node">
<title>Node6</title>
<g id="a_Node000006"><a xlink:href="classApp_1_1Http_1_1Controllers_1_1ProjectController.html#aac69c9e81382317b0b0b45f650744332" target="_top" xlink:title="Display a paginated list of projects for the authenticated user.">
<polygon fill="white" stroke="#666666" points="137,-497.5 0,-497.5 0,-467.5 137,-467.5 137,-497.5"/>
<text text-anchor="start" x="8" y="-485.5" font-family="Helvetica,sans-Serif" font-size="10.00">App::Http::Controllers</text>
<text text-anchor="middle" x="68.5" y="-474.5" font-family="Helvetica,sans-Serif" font-size="10.00">::ProjectController::index</text>
</a>
</g>
</g>
<!-- Node5&#45;&gt;Node6 -->
<g id="edge5_Node000005_Node000006" class="edge">
<title>Node5&#45;&gt;Node6</title>
<g id="a_edge5_Node000005_Node000006"><a xlink:title=" ">
<path fill="none" stroke="#63b8ff" d="M162.72,-482.5C154.09,-482.5 145.46,-482.5 137.12,-482.5"/>
<polygon fill="#63b8ff" stroke="#63b8ff" points="162.84,-486 172.84,-482.5 162.84,-479 162.84,-486"/>
</a>
</g>
</g>
<!-- Node11 -->
<g id="Node000011" class="node">
<title>Node11</title>
<g id="a_Node000011"><a xlink:href="classApp_1_1Services_1_1Projects_1_1ProjectIdeaService.html#adb4e0355059d11557925e516319253b2" target="_top" xlink:title="Persist a project idea coming from a professor or committee leader.">
<polygon fill="white" stroke="#666666" points="527,-277 399,-277 399,-236 527,-236 527,-277"/>
<text text-anchor="start" x="407" y="-265" font-family="Helvetica,sans-Serif" font-size="10.00">App::Services::Projects</text>
<text text-anchor="start" x="407" y="-254" font-family="Helvetica,sans-Serif" font-size="10.00">::ProjectIdeaService::</text>
<text text-anchor="middle" x="463" y="-243" font-family="Helvetica,sans-Serif" font-size="10.00">persistProfessorIdea</text>
</a>
</g>
</g>
<!-- Node10&#45;&gt;Node11 -->
<g id="edge10_Node000010_Node000011" class="edge">
<title>Node10&#45;&gt;Node11</title>
<g id="a_edge10_Node000010_Node000011"><a xlink:title=" ">
<path fill="none" stroke="#63b8ff" d="M587.77,-256.5C567.44,-256.5 546.25,-256.5 527.26,-256.5"/>
<polygon fill="#63b8ff" stroke="#63b8ff" points="587.99,-260 597.99,-256.5 587.99,-253 587.99,-260"/>
</a>
</g>
</g>
<!-- Node14 -->
<g id="Node000014" class="node">
<title>Node14</title>
<g id="a_Node000014"><a xlink:href="classApp_1_1Http_1_1Controllers_1_1ProjectVersionController.html#a2389d8b616d87db11847ca38eb91109b" target="_top" xlink:title="Display the version history associated with the project.">
<polygon fill="white" stroke="#666666" points="533,-186 393,-186 393,-145 533,-145 533,-186"/>
<text text-anchor="start" x="401" y="-174" font-family="Helvetica,sans-Serif" font-size="10.00">App::Http::Controllers</text>
<text text-anchor="start" x="401" y="-163" font-family="Helvetica,sans-Serif" font-size="10.00">::ProjectVersionController</text>
<text text-anchor="middle" x="463" y="-152" font-family="Helvetica,sans-Serif" font-size="10.00">::index</text>
</a>
</g>
</g>
<!-- Node13&#45;&gt;Node14 -->
<g id="edge13_Node000013_Node000014" class="edge">
<title>Node13&#45;&gt;Node14</title>
<g id="a_edge13_Node000013_Node000014"><a xlink:title=" ">
<path fill="none" stroke="#63b8ff" d="M597.88,-148.53C576.64,-151.22 553.83,-154.11 533.17,-156.73"/>
<polygon fill="#63b8ff" stroke="#63b8ff" points="598.36,-152 607.85,-147.27 597.48,-145.05 598.36,-152"/>
</a>
</g>
</g>
<!-- Node15 -->
<g id="Node000015" class="node">
<title>Node15</title>
<g id="a_Node000015"><a xlink:href="classApp_1_1Http_1_1Controllers_1_1ProjectVersionController.html#a2cfada4301b68a0a74ecc8723a363bc7" target="_top" xlink:title="Show the full snapshot of a project version.">
<polygon fill="white" stroke="#666666" points="549,-126.5 377,-126.5 377,-96.5 549,-96.5 549,-126.5"/>
<text text-anchor="start" x="385" y="-114.5" font-family="Helvetica,sans-Serif" font-size="10.00">App::Http::Controllers</text>
<text text-anchor="middle" x="463" y="-103.5" font-family="Helvetica,sans-Serif" font-size="10.00">::ProjectVersionController::show</text>
</a>
</g>
</g>
<!-- Node13&#45;&gt;Node15 -->
<g id="edge14_Node000013_Node000015" class="edge">
<title>Node13&#45;&gt;Node15</title>
<g id="a_edge14_Node000013_Node000015"><a xlink:title=" ">
<path fill="none" stroke="#63b8ff" d="M597.61,-128.44C581.81,-126.43 565.17,-124.32 549.19,-122.3"/>
<polygon fill="#63b8ff" stroke="#63b8ff" points="597.48,-131.95 607.85,-129.73 598.36,-125 597.48,-131.95"/>
</a>
</g>
</g>
</g>
</svg>
