<?xml version="1.0" encoding="UTF-8" standalone="no"?>
<!DOCTYPE svg PUBLIC "-//W3C//DTD SVG 1.1//EN"
 "http://www.w3.org/Graphics/SVG/1.1/DTD/svg11.dtd">
<!-- Generated by graphviz version 2.43.0 (0)
 -->
<!-- Title: App::Models::Project::students Pages: 1 -->
<!--zoomable 570 -->

<svg id="main" version="1.1" xmlns="http://www.w3.org/2000/svg" xmlns:xlink="http://www.w3.org/1999/xlink" xml:space="preserve" onload="init(evt)">
<style type="text/css"><![CDATA[
.node, .edge {opacity: 0.7;}
.node.selected, .edge.selected {opacity: 1;}
.edge:hover path { stroke: red; }
.edge:hover polygon { stroke: red; fill: red; }
]]></style>

<defs>
  <circle id="rim" cx="0" cy="0" r="7"/>
  <circle id="rim2" cx="0" cy="0" r="3.5"/>
  <g id="zoomPlus">
    <use xlink:href="#rim" fill="#404040"><set attributeName="fill" to="#808080" begin="zoomplus.mouseover" end="zoomplus.mouseout"/></use>
    <path d="M-4,0h8M0,-4v8" fill="none" stroke="white" stroke-width="1.5" pointer-events="none"/>
  </g>
  <g id="zoomMin">
    <use xlink:href="#rim" fill="#404040"><set attributeName="fill" to="#808080" begin="zoomminus.mouseover" end="zoomminus.mouseout"/></use>
    <path d="M-4,0h8" fill="none" stroke="white" stroke-width="1.5" pointer-events="none"/>
  </g>
  <g id="arrowUp" transform="translate(30 24)">
    <use xlink:href="#rim"/>
    <path pointer-events="none" fill="none" stroke="white" stroke-width="1.5" d="M0,-3.0v7 M-2.5,-0.5L0,-3.0L2.5,-0.5"/>
  </g>
  <g id="arrowRight" transform="rotate(90) translate(36 -43)">
    <use xlink:href="#rim"/>
    <path pointer-events="none" fill="none" stroke="white" stroke-width="1.5" d="M0,-3.0v7 M-2.5,-0.5L0,-3.0L2.5,-0.5"/>
  </g>
  <g id="arrowDown" transform="rotate(180) translate(-30 -48)">
    <use xlink:href="#rim"/>
    <path pointer-events="none" fill="none" stroke="white" stroke-width="1.5" d="M0,-3.0v7 M-2.5,-0.5L0,-3.0L2.5,-0.5"/>
  </g>
  <g id="arrowLeft" transform="rotate(270) translate(-36 17)">
    <use xlink:href="#rim"/>
    <path pointer-events="none" fill="none" stroke="white" stroke-width="1.5" d="M0,-3.0v7 M-2.5,-0.5L0,-3.0L2.5,-0.5"/>
  </g>
  <g id="resetDef">
    <use xlink:href="#rim2" fill="#404040"><set attributeName="fill" to="#808080" begin="reset.mouseover" end="reset.mouseout"/></use>
  </g>
</defs>
<script type="application/ecmascript">
var viewWidth = 945;
var viewHeight = 570;
var sectionId = 'dynsection-11';
</script>
<script type="application/ecmascript" xlink:href="svg.min.js"/>
<svg id="graph" class="graph">
<g id="viewport">
<title>App::Models::Project::students</title>
<!-- Node1 -->
<g id="Node000001" class="node">
<title>Node1</title>
<g id="a_Node000001"><a xlink:title=" ">
<polygon fill="#999999" stroke="#666666" points="937,-298.5 821,-298.5 821,-268.5 937,-268.5 937,-298.5"/>
<text text-anchor="start" x="829" y="-286.5" font-family="Helvetica,sans-Serif" font-size="10.00">App::Models::Project</text>
<text text-anchor="middle" x="879" y="-275.5" font-family="Helvetica,sans-Serif" font-size="10.00">::students</text>
</a>
</g>
</g>
<!-- Node2 -->
<g id="Node000002" class="node">
<title>Node2</title>
<g id="a_Node000002"><a xlink:href="classApp_1_1Http_1_1Controllers_1_1BankApprovedIdeasAssignController.html#aaa40633f6ad94204084042152841fb74" target="_top" xlink:title=" ">
<polygon fill="white" stroke="#666666" points="785,-562 585,-562 585,-521 785,-521 785,-562"/>
<text text-anchor="start" x="593" y="-550" font-family="Helvetica,sans-Serif" font-size="10.00">App::Http::Controllers</text>
<text text-anchor="start" x="593" y="-539" font-family="Helvetica,sans-Serif" font-size="10.00">::BankApprovedIdeasAssignController</text>
<text text-anchor="middle" x="685" y="-528" font-family="Helvetica,sans-Serif" font-size="10.00">::assign</text>
</a>
</g>
</g>
<!-- Node1&#45;&gt;Node2 -->
<g id="edge1_Node000001_Node000002" class="edge">
<title>Node1&#45;&gt;Node2</title>
<g id="a_edge1_Node000001_Node000002"><a xlink:title=" ">
<path fill="none" stroke="#63b8ff" d="M874.98,-308.55C867.99,-355.53 846.28,-457.11 785,-512.5 781.55,-515.62 777.77,-518.41 773.78,-520.9"/>
<polygon fill="#63b8ff" stroke="#63b8ff" points="878.45,-309 876.36,-298.61 871.52,-308.04 878.45,-309"/>
</a>
</g>
</g>
<!-- Node3 -->
<g id="Node000003" class="node">
<title>Node3</title>
<g id="a_Node000003"><a xlink:href="classApp_1_1Http_1_1Controllers_1_1ProjectController.html#a2a1b70d892c5194d1203a6449baadfac" target="_top" xlink:title="Guard access to edit/update operations ensuring the user participates in the project.">
<polygon fill="white" stroke="#666666" points="763,-503 607,-503 607,-462 763,-462 763,-503"/>
<text text-anchor="start" x="615" y="-491" font-family="Helvetica,sans-Serif" font-size="10.00">App::Http::Controllers</text>
<text text-anchor="start" x="615" y="-480" font-family="Helvetica,sans-Serif" font-size="10.00">::ProjectController::authorize</text>
<text text-anchor="middle" x="685" y="-469" font-family="Helvetica,sans-Serif" font-size="10.00">ProjectAccess</text>
</a>
</g>
</g>
<!-- Node1&#45;&gt;Node3 -->
<g id="edge2_Node000001_Node000003" class="edge">
<title>Node1&#45;&gt;Node3</title>
<g id="a_edge2_Node000001_Node000003"><a xlink:title=" ">
<path fill="none" stroke="#63b8ff" d="M871.06,-308.54C859.46,-345.71 832.59,-415.2 785,-453.5 778.44,-458.78 770.95,-463.09 763.1,-466.63"/>
<polygon fill="#63b8ff" stroke="#63b8ff" points="874.54,-309.12 874.05,-298.54 867.83,-307.11 874.54,-309.12"/>
</a>
</g>
</g>
<!-- Node4 -->
<g id="Node000004" class="node">
<title>Node4</title>
<g id="a_Node000004"><a xlink:href="classApp_1_1Http_1_1Controllers_1_1ProjectController.html#a97e2b94a18babf3ec770fb491b12fa5a" target="_top" xlink:title=" ">
<polygon fill="white" stroke="#666666" points="775.5,-444 594.5,-444 594.5,-403 775.5,-403 775.5,-444"/>
<text text-anchor="start" x="602.5" y="-432" font-family="Helvetica,sans-Serif" font-size="10.00">App::Http::Controllers</text>
<text text-anchor="start" x="602.5" y="-421" font-family="Helvetica,sans-Serif" font-size="10.00">::ProjectController::buildPrograms</text>
<text text-anchor="middle" x="685" y="-410" font-family="Helvetica,sans-Serif" font-size="10.00">AndLinesReportState</text>
</a>
</g>
</g>
<!-- Node1&#45;&gt;Node4 -->
<g id="edge3_Node000001_Node000004" class="edge">
<title>Node1&#45;&gt;Node4</title>
<g id="a_edge3_Node000001_Node000004"><a xlink:title=" ">
<path fill="none" stroke="#63b8ff" d="M864.19,-307.11C848.23,-332.36 819.67,-371.83 785,-394.5 780.2,-397.64 775.06,-400.44 769.73,-402.95"/>
<polygon fill="#63b8ff" stroke="#63b8ff" points="867.23,-308.85 869.49,-298.5 861.27,-305.18 867.23,-308.85"/>
</a>
</g>
</g>
<!-- Node8 -->
<g id="Node000008" class="node">
<title>Node8</title>
<g id="a_Node000008"><a xlink:href="classApp_1_1Http_1_1Controllers_1_1ProjectController.html#a8eca93212c12c16305928089124a9a7f" target="_top" xlink:title="Build a portable snapshot so each version preserves the project state of that moment.">
<polygon fill="white" stroke="#666666" points="769,-385 601,-385 601,-344 769,-344 769,-385"/>
<text text-anchor="start" x="609" y="-373" font-family="Helvetica,sans-Serif" font-size="10.00">App::Http::Controllers</text>
<text text-anchor="start" x="609" y="-362" font-family="Helvetica,sans-Serif" font-size="10.00">::ProjectController::buildProject</text>
<text text-anchor="middle" x="685" y="-351" font-family="Helvetica,sans-Serif" font-size="10.00">VersionSnapshot</text>
</a>
</g>
</g>
<!-- Node1&#45;&gt;Node8 -->
<g id="edge7_Node000001_Node000008" class="edge">
<title>Node1&#45;&gt;Node8</title>
<g id="a_edge7_Node000001_Node000008"><a xlink:title=" ">
<path fill="none" stroke="#63b8ff" d="M845.16,-303.69C827.72,-313.85 805.67,-325.81 785,-334.5 776.97,-337.88 768.43,-341.05 759.86,-343.97"/>
<polygon fill="#63b8ff" stroke="#63b8ff" points="847,-306.67 853.83,-298.57 843.44,-300.65 847,-306.67"/>
</a>
</g>
</g>
<!-- Node9 -->
<g id="Node000009" class="node">
<title>Node9</title>
<g id="a_Node000009"><a xlink:href="classApp_1_1Http_1_1Controllers_1_1ProjectController.html#a1a5cbe33cd3fb125fa815009ad08ece0" target="_top" xlink:title="Display the edit form with the existing project information.">
<polygon fill="white" stroke="#666666" points="749.5,-325.5 620.5,-325.5 620.5,-295.5 749.5,-295.5 749.5,-325.5"/>
<text text-anchor="start" x="628.5" y="-313.5" font-family="Helvetica,sans-Serif" font-size="10.00">App::Http::Controllers</text>
<text text-anchor="middle" x="685" y="-302.5" font-family="Helvetica,sans-Serif" font-size="10.00">::ProjectController::edit</text>
</a>
</g>
</g>
<!-- Node1&#45;&gt;Node9 -->
<g id="edge8_Node000001_Node000009" class="edge">
<title>Node1&#45;&gt;Node9</title>
<g id="a_edge8_Node000001_Node000009"><a xlink:title=" ">
<path fill="none" stroke="#63b8ff" d="M810.99,-292.92C791.06,-295.73 769.29,-298.79 749.59,-301.56"/>
<polygon fill="#63b8ff" stroke="#63b8ff" points="811.5,-296.39 820.91,-291.53 810.52,-289.45 811.5,-296.39"/>
</a>
</g>
</g>
<!-- Node10 -->
<g id="Node000010" class="node">
<title>Node10</title>
<g id="a_Node000010"><a xlink:href="classApp_1_1Services_1_1Projects_1_1ProjectIdeaService.html#a8508965dd3de4879787a4bd55f11f4a7" target="_top" xlink:title="Determines if a duplicate project already exists for the provided student lineup.">
<polygon fill="white" stroke="#666666" points="761,-277 609,-277 609,-236 761,-236 761,-277"/>
<text text-anchor="start" x="617" y="-265" font-family="Helvetica,sans-Serif" font-size="10.00">App::Services::Projects</text>
<text text-anchor="start" x="617" y="-254" font-family="Helvetica,sans-Serif" font-size="10.00">::ProjectIdeaService::</text>
<text text-anchor="middle" x="685" y="-243" font-family="Helvetica,sans-Serif" font-size="10.00">hasDuplicateStudentProject</text>
</a>
</g>
</g>
<!-- Node1&#45;&gt;Node10 -->
<g id="edge9_Node000001_Node000010" class="edge">
<title>Node1&#45;&gt;Node10</title>
<g id="a_edge9_Node000001_Node000010"><a xlink:title=" ">
<path fill="none" stroke="#63b8ff" d="M810.57,-274.02C794.55,-271.76 777.36,-269.35 761.02,-267.05"/>
<polygon fill="#63b8ff" stroke="#63b8ff" points="810.52,-277.55 820.91,-275.47 811.5,-270.61 810.52,-277.55"/>
</a>
</g>
</g>
<!-- Node12 -->
<g id="Node000012" class="node">
<title>Node12</title>
<g id="a_Node000012"><a xlink:href="classApp_1_1Http_1_1Controllers_1_1ProjectController.html#a01f301c831deec8989b3edf0f3b00a0c" target="_top" xlink:title="Persist the project data for a student either creating or updating a record.">
<polygon fill="white" stroke="#666666" points="756.5,-218 613.5,-218 613.5,-177 756.5,-177 756.5,-218"/>
<text text-anchor="start" x="621.5" y="-206" font-family="Helvetica,sans-Serif" font-size="10.00">App::Http::Controllers</text>
<text text-anchor="start" x="621.5" y="-195" font-family="Helvetica,sans-Serif" font-size="10.00">::ProjectController::persist</text>
<text text-anchor="middle" x="685" y="-184" font-family="Helvetica,sans-Serif" font-size="10.00">StudentProject</text>
</a>
</g>
</g>
<!-- Node1&#45;&gt;Node12 -->
<g id="edge11_Node000001_Node000012" class="edge">
<title>Node1&#45;&gt;Node12</title>
<g id="a_edge11_Node000001_Node000012"><a xlink:title=" ">
<path fill="none" stroke="#63b8ff" d="M848.36,-262.53C830.62,-250.71 807.26,-236.37 785,-226.5 776,-222.51 766.29,-218.89 756.6,-215.67"/>
<polygon fill="#63b8ff" stroke="#63b8ff" points="846.85,-265.73 857.09,-268.45 850.78,-259.94 846.85,-265.73"/>
</a>
</g>
</g>
<!-- Node13 -->
<g id="Node000013" class="node">
<title>Node13</title>
<g id="a_Node000013"><a xlink:href="classApp_1_1Http_1_1Controllers_1_1ProjectVersionController.html#a66279c21a7515cf7b7e7227dc4bcaa2b" target="_top" xlink:title="Build a compatible snapshot for legacy and new versions.">
<polygon fill="white" stroke="#666666" points="755,-159 615,-159 615,-118 755,-118 755,-159"/>
<text text-anchor="start" x="623" y="-147" font-family="Helvetica,sans-Serif" font-size="10.00">App::Http::Controllers</text>
<text text-anchor="start" x="623" y="-136" font-family="Helvetica,sans-Serif" font-size="10.00">::ProjectVersionController</text>
<text text-anchor="middle" x="685" y="-125" font-family="Helvetica,sans-Serif" font-size="10.00">::resolveSnapshot</text>
</a>
</g>
</g>
<!-- Node1&#45;&gt;Node13 -->
<g id="edge12_Node000001_Node000013" class="edge">
<title>Node1&#45;&gt;Node13</title>
<g id="a_edge12_Node000001_Node000013"><a xlink:title=" ">
<path fill="none" stroke="#63b8ff" d="M864.7,-259.24C849.02,-232.86 820.53,-191.29 785,-167.5 775.92,-161.42 765.55,-156.59 755.01,-152.77"/>
<polygon fill="#63b8ff" stroke="#63b8ff" points="861.85,-261.31 869.89,-268.22 867.91,-257.81 861.85,-261.31"/>
</a>
</g>
</g>
<!-- Node16 -->
<g id="Node000016" class="node">
<title>Node16</title>
<g id="a_Node000016"><a xlink:href="classApp_1_1Http_1_1Controllers_1_1BankApprovedIdeasForProfessorsController.html#aeb7ae4b548502b0d6d8ff88d43a38acf" target="_top" xlink:title="Los profesores pueden ver el detalle de una idea aprobada sin depender de la ventana del calendario.">
<polygon fill="white" stroke="#666666" points="778,-100 592,-100 592,-59 778,-59 778,-100"/>
<text text-anchor="start" x="600" y="-88" font-family="Helvetica,sans-Serif" font-size="10.00">App::Http::Controllers</text>
<text text-anchor="start" x="600" y="-77" font-family="Helvetica,sans-Serif" font-size="10.00">::BankApprovedIdeasForProfessors</text>
<text text-anchor="middle" x="685" y="-66" font-family="Helvetica,sans-Serif" font-size="10.00">Controller::show</text>
</a>
</g>
</g>
<!-- Node1&#45;&gt;Node16 -->
<g id="edge15_Node000001_Node000016" class="edge">
<title>Node1&#45;&gt;Node16</title>
<g id="a_edge15_Node000001_Node000016"><a xlink:title=" ">
<path fill="none" stroke="#63b8ff" d="M871.5,-258.51C860.31,-220.46 833.76,-148.23 785,-108.5 781.25,-105.45 777.19,-102.71 772.93,-100.27"/>
<polygon fill="#63b8ff" stroke="#63b8ff" points="868.17,-259.61 874.25,-268.28 874.91,-257.71 868.17,-259.61"/>
</a>
</g>
</g>
<!-- Node17 -->
<g id="Node000017" class="node">
<title>Node17</title>
<g id="a_Node000017"><a xlink:href="classApp_1_1Http_1_1Controllers_1_1BankApprovedIdeasForStudentsController.html#a1da16a4a5c61221cfdcd5ec9887a8a9e" target="_top" xlink:title=" ">
<polygon fill="white" stroke="#666666" points="774,-41 596,-41 596,0 774,0 774,-41"/>
<text text-anchor="start" x="604" y="-29" font-family="Helvetica,sans-Serif" font-size="10.00">App::Http::Controllers</text>
<text text-anchor="start" x="604" y="-18" font-family="Helvetica,sans-Serif" font-size="10.00">::BankApprovedIdeasForStudents</text>
<text text-anchor="middle" x="685" y="-7" font-family="Helvetica,sans-Serif" font-size="10.00">Controller::show</text>
</a>
</g>
</g>
<!-- Node1&#45;&gt;Node17 -->
<g id="edge16_Node000001_Node000017" class="edge">
<title>Node1&#45;&gt;Node17</title>
<g id="a_edge16_Node000001_Node000017"><a xlink:title=" ">
<path fill="none" stroke="#63b8ff" d="M875.21,-258.26C868.55,-210.43 847.37,-106.3 785,-49.5 781.56,-46.36 777.79,-43.57 773.81,-41.07"/>
<polygon fill="#63b8ff" stroke="#63b8ff" points="871.76,-258.89 876.51,-268.36 878.7,-258 871.76,-258.89"/>
</a>
</g>
</g>
<!-- Node5 -->
<g id="Node000005" class="node">
<title>Node5</title>
<g id="a_Node000005"><a xlink:href="classApp_1_1Http_1_1Controllers_1_1ProjectController.html#a8f4b9392fade0bdec576281c18000164" target="_top" xlink:title=" ">
<polygon fill="white" stroke="#666666" points="540.5,-444 385.5,-444 385.5,-403 540.5,-403 540.5,-444"/>
<text text-anchor="start" x="393.5" y="-432" font-family="Helvetica,sans-Serif" font-size="10.00">App::Http::Controllers</text>
<text text-anchor="start" x="393.5" y="-421" font-family="Helvetica,sans-Serif" font-size="10.00">::ProjectController::compose</text>
<text text-anchor="middle" x="463" y="-410" font-family="Helvetica,sans-Serif" font-size="10.00">ProjectReportState</text>
</a>
</g>
</g>
<!-- Node4&#45;&gt;Node5 -->
<g id="edge4_Node000004_Node000005" class="edge">
<title>Node4&#45;&gt;Node5</title>
<g id="a_edge4_Node000004_Node000005"><a xlink:title=" ">
<path fill="none" stroke="#63b8ff" d="M584.18,-423.5C569.63,-423.5 554.84,-423.5 540.84,-423.5"/>
<polygon fill="#63b8ff" stroke="#63b8ff" points="584.2,-427 594.2,-423.5 584.2,-420 584.2,-427"/>
</a>
</g>
</g>
<!-- Node6 -->
<g id="Node000006" class="node">
<title>Node6</title>
<g id="a_Node000006"><a xlink:href="classApp_1_1Http_1_1Controllers_1_1ProjectController.html#a910bc101d1d62734a0ca5ce2a0120e6f" target="_top" xlink:title="Build the report state rendered below the projects list.">
<polygon fill="white" stroke="#666666" points="341,-444 173,-444 173,-403 341,-403 341,-444"/>
<text text-anchor="start" x="181" y="-432" font-family="Helvetica,sans-Serif" font-size="10.00">App::Http::Controllers</text>
<text text-anchor="start" x="181" y="-421" font-family="Helvetica,sans-Serif" font-size="10.00">::ProjectController::buildProject</text>
<text text-anchor="middle" x="257" y="-410" font-family="Helvetica,sans-Serif" font-size="10.00">ReportState</text>
</a>
</g>
</g>
<!-- Node5&#45;&gt;Node6 -->
<g id="edge5_Node000005_Node000006" class="edge">
<title>Node5&#45;&gt;Node6</title>
<g id="a_edge5_Node000005_Node000006"><a xlink:title=" ">
<path fill="none" stroke="#63b8ff" d="M375.18,-423.5C363.89,-423.5 352.35,-423.5 341.12,-423.5"/>
<polygon fill="#63b8ff" stroke="#63b8ff" points="375.46,-427 385.46,-423.5 375.46,-420 375.46,-427"/>
</a>
</g>
</g>
<!-- Node7 -->
<g id="Node000007" class="node">
<title>Node7</title>
<g id="a_Node000007"><a xlink:href="classApp_1_1Http_1_1Controllers_1_1ProjectController.html#aac69c9e81382317b0b0b45f650744332" target="_top" xlink:title="Display a paginated list of projects for the authenticated user.">
<polygon fill="white" stroke="#666666" points="137,-438.5 0,-438.5 0,-408.5 137,-408.5 137,-438.5"/>
<text text-anchor="start" x="8" y="-426.5" font-family="Helvetica,sans-Serif" font-size="10.00">App::Http::Controllers</text>
<text text-anchor="middle" x="68.5" y="-415.5" font-family="Helvetica,sans-Serif" font-size="10.00">::ProjectController::index</text>
</a>
</g>
</g>
<!-- Node6&#45;&gt;Node7 -->
<g id="edge6_Node000006_Node000007" class="edge">
<title>Node6&#45;&gt;Node7</title>
<g id="a_edge6_Node000006_Node000007"><a xlink:title=" ">
<path fill="none" stroke="#63b8ff" d="M162.72,-423.5C154.09,-423.5 145.46,-423.5 137.12,-423.5"/>
<polygon fill="#63b8ff" stroke="#63b8ff" points="162.84,-427 172.84,-423.5 162.84,-420 162.84,-427"/>
</a>
</g>
</g>
<!-- Node11 -->
<g id="Node000011" class="node">
<title>Node11</title>
<g id="a_Node000011"><a xlink:href="classApp_1_1Services_1_1Projects_1_1ProjectIdeaService.html#a1cc2ae9ac23b365acdedb1b839ece004" target="_top" xlink:title="Persist a project idea coming from a student.">
<polygon fill="white" stroke="#666666" points="527,-277 399,-277 399,-236 527,-236 527,-277"/>
<text text-anchor="start" x="407" y="-265" font-family="Helvetica,sans-Serif" font-size="10.00">App::Services::Projects</text>
<text text-anchor="start" x="407" y="-254" font-family="Helvetica,sans-Serif" font-size="10.00">::ProjectIdeaService::</text>
<text text-anchor="middle" x="463" y="-243" font-family="Helvetica,sans-Serif" font-size="10.00">persistStudentIdea</text>
</a>
</g>
</g>
<!-- Node10&#45;&gt;Node11 -->
<g id="edge10_Node000010_Node000011" class="edge">
<title>Node10&#45;&gt;Node11</title>
<g id="a_edge10_Node000010_Node000011"><a xlink:title=" ">
<path fill="none" stroke="#63b8ff" d="M598.79,-256.5C574.91,-256.5 549.39,-256.5 527.05,-256.5"/>
<polygon fill="#63b8ff" stroke="#63b8ff" points="598.9,-260 608.9,-256.5 598.9,-253 598.9,-260"/>
</a>
</g>
</g>
<!-- Node14 -->
<g id="Node000014" class="node">
<title>Node14</title>
<g id="a_Node000014"><a xlink:href="classApp_1_1Http_1_1Controllers_1_1ProjectVersionController.html#a2389d8b616d87db11847ca38eb91109b" target="_top" xlink:title="Display the version history associated with the project.">
<polygon fill="white" stroke="#666666" points="533,-186 393,-186 393,-145 533,-145 533,-186"/>
<text text-anchor="start" x="401" y="-174" font-family="Helvetica,sans-Serif" font-size="10.00">App::Http::Controllers</text>
<text text-anchor="start" x="401" y="-163" font-family="Helvetica,sans-Serif" font-size="10.00">::ProjectVersionController</text>
<text text-anchor="middle" x="463" y="-152" font-family="Helvetica,sans-Serif" font-size="10.00">::index</text>
</a>
</g>
</g>
<!-- Node13&#45;&gt;Node14 -->
<g id="edge13_Node000013_Node000014" class="edge">
<title>Node13&#45;&gt;Node14</title>
<g id="a_edge13_Node000013_Node000014"><a xlink:title=" ">
<path fill="none" stroke="#63b8ff" d="M605.06,-148.19C581.55,-151.07 555.97,-154.21 533.14,-157.01"/>
<polygon fill="#63b8ff" stroke="#63b8ff" points="605.5,-151.66 614.99,-146.97 604.64,-144.71 605.5,-151.66"/>
</a>
</g>
</g>
<!-- Node15 -->
<g id="Node000015" class="node">
<title>Node15</title>
<g id="a_Node000015"><a xlink:href="classApp_1_1Http_1_1Controllers_1_1ProjectVersionController.html#a2cfada4301b68a0a74ecc8723a363bc7" target="_top" xlink:title="Show the full snapshot of a project version.">
<polygon fill="white" stroke="#666666" points="549,-126.5 377,-126.5 377,-96.5 549,-96.5 549,-126.5"/>
<text text-anchor="start" x="385" y="-114.5" font-family="Helvetica,sans-Serif" font-size="10.00">App::Http::Controllers</text>
<text text-anchor="middle" x="463" y="-103.5" font-family="Helvetica,sans-Serif" font-size="10.00">::ProjectVersionController::show</text>
</a>
</g>
</g>
<!-- Node13&#45;&gt;Node15 -->
<g id="edge14_Node000013_Node000015" class="edge">
<title>Node13&#45;&gt;Node15</title>
<g id="a_edge14_Node000013_Node000015"><a xlink:title=" ">
<path fill="none" stroke="#63b8ff" d="M605.03,-128.81C586.85,-126.58 567.44,-124.19 549.01,-121.93"/>
<polygon fill="#63b8ff" stroke="#63b8ff" points="604.64,-132.29 614.99,-130.03 605.5,-125.34 604.64,-132.29"/>
</a>
</g>
</g>
</g>
</svg>

<g id="navigator" transform="translate(0 0)" fill="#404254">
  <rect fill="#f2f5e9" fill-opacity="0.5" stroke="#606060" stroke-width=".5" x="0" y="0" width="60" height="60"/>
  <use id="zoomplus" xlink:href="#zoomPlus" x="17" y="9" onmousedown="handleZoom(evt,'in')"/>
  <use id="zoomminus" xlink:href="#zoomMin" x="42" y="9" onmousedown="handleZoom(evt,'out')"/>
  <use id="reset" xlink:href="#resetDef" x="30" y="36" onmousedown="handleReset()"/>
   <use id="arrowup" xlink:href="#arrowUp" x="0" y="0" onmousedown="handlePan(0,-1)"/>
  <use id="arrowright" xlink:href="#arrowRight" x="0" y="0" onmousedown="handlePan(1,0)"/>
  <use id="arrowdown" xlink:href="#arrowDown" x="0" y="0" onmousedown="handlePan(0,1)"/>
  <use id="arrowleft" xlink:href="#arrowLeft" x="0" y="0" onmousedown="handlePan(-1,0)"/>
</g>
<svg viewBox="0 0 15 15" width="100%" height="30px" preserveAspectRatio="xMaxYMin meet">
 <g id="arrow_out" transform="scale(0.3 0.3)">
  <a xlink:href="classApp_1_1Models_1_1Project_a6e148fe6ffa1778de91228a3cbe51ec5_icgraph_org.svg" target="_base">
   <rect id="button" ry="5" rx="5" y="6" x="6" height="38" width="38"
        fill="#f2f5e9" fill-opacity="0.5" stroke="#606060" stroke-width="1.0"/>
   <path id="arrow"
     d="M 11.500037,31.436501 C 11.940474,20.09759 22.043105,11.32322 32.158766,21.979434 L 37.068811,17.246167 C 37.068811,17.246167 37.088388,32 37.088388,32 L 22.160133,31.978069 C 22.160133,31.978069 26.997745,27.140456 26.997745,27.140456 C 18.528582,18.264221 13.291696,25.230495 11.500037,31.436501 z"
     style="fill:#404040;"/>
  </a>
 </g>
</svg>

<style type='text/css'>
<![CDATA[
[data-mouse-over-selected='false'] { opacity: 0.7; }
[data-mouse-over-selected='true']  { opacity: 1.0; }
]]>
</style>
<script type="application/ecmascript"><![CDATA[
document.addEventListener('DOMContentLoaded', (event) => {
  highlightEdges();
  highlightAdjacentNodes();
});
]]></script>
</svg>
