<?xml version="1.0" encoding="UTF-8" standalone="no"?>
<!DOCTYPE svg PUBLIC "-//W3C//DTD SVG 1.1//EN"
 "http://www.w3.org/Graphics/SVG/1.1/DTD/svg11.dtd">
<!-- Generated by graphviz version 2.43.0 (0)
 -->
<!-- Title: App::Models::User::student Pages: 1 -->
<svg width="534pt" height="493pt"
 viewBox="0.00 0.00 534.00 492.50" xmlns="http://www.w3.org/2000/svg" xmlns:xlink="http://www.w3.org/1999/xlink">
<g id="graph0" class="graph" transform="scale(1 1) rotate(0) translate(4 488.5)">
<title>App::Models::User::student</title>
<!-- Node1 -->
<g id="Node000001" class="node">
<title>Node1</title>
<g id="a_Node000001"><a xlink:title="Student profile associated with the user.">
<polygon fill="#999999" stroke="#666666" points="526,-246 415,-246 415,-216 526,-216 526,-246"/>
<text text-anchor="start" x="423" y="-234" font-family="Helvetica,sans-Serif" font-size="10.00">App::Models::User::</text>
<text text-anchor="middle" x="470.5" y="-223" font-family="Helvetica,sans-Serif" font-size="10.00">student</text>
</a>
</g>
</g>
<!-- Node2 -->
<g id="Node000002" class="node">
<title>Node2</title>
<g id="a_Node000002"><a xlink:href="classApp_1_1Http_1_1Controllers_1_1ProjectController.html#a2a1b70d892c5194d1203a6449baadfac" target="_top" xlink:title="Guard access to edit/update operations ensuring the user participates in the project.">
<polygon fill="white" stroke="#666666" points="353,-484.5 197,-484.5 197,-443.5 353,-443.5 353,-484.5"/>
<text text-anchor="start" x="205" y="-472.5" font-family="Helvetica,sans-Serif" font-size="10.00">App::Http::Controllers</text>
<text text-anchor="start" x="205" y="-461.5" font-family="Helvetica,sans-Serif" font-size="10.00">::ProjectController::authorize</text>
<text text-anchor="middle" x="275" y="-450.5" font-family="Helvetica,sans-Serif" font-size="10.00">ProjectAccess</text>
</a>
</g>
</g>
<!-- Node1&#45;&gt;Node2 -->
<g id="edge1_Node000001_Node000002" class="edge">
<title>Node1&#45;&gt;Node2</title>
<g id="a_edge1_Node000001_Node000002"><a xlink:title=" ">
<path fill="none" stroke="#63b8ff" d="M465.46,-256.08C457.18,-299.16 434.21,-387.17 379,-435 371.42,-441.57 362.45,-446.66 353.02,-450.6"/>
<polygon fill="#63b8ff" stroke="#63b8ff" points="468.92,-256.61 467.26,-246.15 462.03,-255.36 468.92,-256.61"/>
</a>
</g>
</g>
<!-- Node3 -->
<g id="Node000003" class="node">
<title>Node3</title>
<g id="a_Node000003"><a xlink:href="classApp_1_1Http_1_1Controllers_1_1ProjectController.html#a7d3e3eb5deda28736e05092ed5f5b65a" target="_top" xlink:title=" ">
<polygon fill="white" stroke="#666666" points="358.5,-425.5 191.5,-425.5 191.5,-384.5 358.5,-384.5 358.5,-425.5"/>
<text text-anchor="start" x="199.5" y="-413.5" font-family="Helvetica,sans-Serif" font-size="10.00">App::Http::Controllers</text>
<text text-anchor="start" x="199.5" y="-402.5" font-family="Helvetica,sans-Serif" font-size="10.00">::ProjectController::baseProject</text>
<text text-anchor="middle" x="275" y="-391.5" font-family="Helvetica,sans-Serif" font-size="10.00">ReportQuery</text>
</a>
</g>
</g>
<!-- Node1&#45;&gt;Node3 -->
<g id="edge2_Node000001_Node000003" class="edge">
<title>Node1&#45;&gt;Node3</title>
<g id="a_edge2_Node000001_Node000003"><a xlink:title=" ">
<path fill="none" stroke="#63b8ff" d="M460.45,-255.75C447.41,-287.97 420.26,-343.86 379,-375 372.76,-379.71 365.79,-383.69 358.5,-387.04"/>
<polygon fill="#63b8ff" stroke="#63b8ff" points="463.81,-256.76 464.19,-246.18 457.29,-254.22 463.81,-256.76"/>
</a>
</g>
</g>
<!-- Node4 -->
<g id="Node000004" class="node">
<title>Node4</title>
<g id="a_Node000004"><a xlink:href="classApp_1_1Http_1_1Controllers_1_1ProjectController.html#acc2e77076795cc48c569966e0be202f9" target="_top" xlink:title="Show the form used to create a new project idea.">
<polygon fill="white" stroke="#666666" points="345.5,-366 204.5,-366 204.5,-336 345.5,-336 345.5,-366"/>
<text text-anchor="start" x="212.5" y="-354" font-family="Helvetica,sans-Serif" font-size="10.00">App::Http::Controllers</text>
<text text-anchor="middle" x="275" y="-343" font-family="Helvetica,sans-Serif" font-size="10.00">::ProjectController::create</text>
</a>
</g>
</g>
<!-- Node1&#45;&gt;Node4 -->
<g id="edge3_Node000001_Node000004" class="edge">
<title>Node1&#45;&gt;Node4</title>
<g id="a_edge3_Node000001_Node000004"><a xlink:title=" ">
<path fill="none" stroke="#63b8ff" d="M453.67,-254.49C437.5,-276.61 410.38,-308.96 379,-327 368.81,-332.86 357.28,-337.29 345.72,-340.64"/>
<polygon fill="#63b8ff" stroke="#63b8ff" points="456.56,-256.46 459.51,-246.28 450.86,-252.4 456.56,-256.46"/>
</a>
</g>
</g>
<!-- Node5 -->
<g id="Node000005" class="node">
<title>Node5</title>
<g id="a_Node000005"><a xlink:href="classApp_1_1Http_1_1Controllers_1_1ProjectController.html#a1a5cbe33cd3fb125fa815009ad08ece0" target="_top" xlink:title="Display the edit form with the existing project information.">
<polygon fill="white" stroke="#666666" points="339.5,-318 210.5,-318 210.5,-288 339.5,-288 339.5,-318"/>
<text text-anchor="start" x="218.5" y="-306" font-family="Helvetica,sans-Serif" font-size="10.00">App::Http::Controllers</text>
<text text-anchor="middle" x="275" y="-295" font-family="Helvetica,sans-Serif" font-size="10.00">::ProjectController::edit</text>
</a>
</g>
</g>
<!-- Node1&#45;&gt;Node5 -->
<g id="edge4_Node000001_Node000005" class="edge">
<title>Node1&#45;&gt;Node5</title>
<g id="a_edge4_Node000001_Node000005"><a xlink:title=" ">
<path fill="none" stroke="#63b8ff" d="M436.5,-251.16C419.76,-260.69 398.81,-271.58 379,-279 366.53,-283.67 352.87,-287.62 339.68,-290.88"/>
<polygon fill="#63b8ff" stroke="#63b8ff" points="438.44,-254.08 445.34,-246.03 434.93,-248.02 438.44,-254.08"/>
</a>
</g>
</g>
<!-- Node6 -->
<g id="Node000006" class="node">
<title>Node6</title>
<g id="a_Node000006"><a xlink:href="classApp_1_1Http_1_1Controllers_1_1PerfilController.html#a992760e3c8425e96e5c73038fc7e3cb7" target="_top" xlink:title=" ">
<polygon fill="white" stroke="#666666" points="368,-270 182,-270 182,-240 368,-240 368,-270"/>
<text text-anchor="start" x="190" y="-258" font-family="Helvetica,sans-Serif" font-size="10.00">App::Http::Controllers</text>
<text text-anchor="middle" x="275" y="-247" font-family="Helvetica,sans-Serif" font-size="10.00">::PerfilController::resolveCityName</text>
</a>
</g>
</g>
<!-- Node1&#45;&gt;Node6 -->
<g id="edge5_Node000001_Node000006" class="edge">
<title>Node1&#45;&gt;Node6</title>
<g id="a_edge5_Node000001_Node000006"><a xlink:title=" ">
<path fill="none" stroke="#63b8ff" d="M404.73,-239.03C393.01,-240.49 380.59,-242.03 368.26,-243.56"/>
<polygon fill="#63b8ff" stroke="#63b8ff" points="405.33,-242.49 414.83,-237.78 404.47,-235.54 405.33,-242.49"/>
</a>
</g>
</g>
<!-- Node8 -->
<g id="Node000008" class="node">
<title>Node8</title>
<g id="a_Node000008"><a xlink:href="classApp_1_1Helpers_1_1UserRoleHelper.html#adcd21e972c61236b2c7f9eef17025727" target="_top" xlink:title=" ">
<polygon fill="white" stroke="#666666" points="355.5,-222 194.5,-222 194.5,-192 355.5,-192 355.5,-222"/>
<text text-anchor="start" x="202.5" y="-210" font-family="Helvetica,sans-Serif" font-size="10.00">App::Helpers::UserRoleHelper</text>
<text text-anchor="middle" x="275" y="-199" font-family="Helvetica,sans-Serif" font-size="10.00">::resolveDetails</text>
</a>
</g>
</g>
<!-- Node1&#45;&gt;Node8 -->
<g id="edge7_Node000001_Node000008" class="edge">
<title>Node1&#45;&gt;Node8</title>
<g id="a_edge7_Node000001_Node000008"><a xlink:title=" ">
<path fill="none" stroke="#63b8ff" d="M404.72,-222.97C389.04,-221.02 372.1,-218.92 355.82,-216.9"/>
<polygon fill="#63b8ff" stroke="#63b8ff" points="404.47,-226.46 414.83,-224.22 405.33,-219.51 404.47,-226.46"/>
</a>
</g>
</g>
<!-- Node9 -->
<g id="Node000009" class="node">
<title>Node9</title>
<g id="a_Node000009"><a xlink:href="classApp_1_1Http_1_1Controllers_1_1PerfilController.html#a5b88204314f8c45104c90ef065e71b6a" target="_top" xlink:title=" ">
<polygon fill="white" stroke="#666666" points="359,-126 191,-126 191,-96 359,-96 359,-126"/>
<text text-anchor="start" x="199" y="-114" font-family="Helvetica,sans-Serif" font-size="10.00">App::Http::Controllers</text>
<text text-anchor="middle" x="275" y="-103" font-family="Helvetica,sans-Serif" font-size="10.00">::PerfilController::resolveProfile</text>
</a>
</g>
</g>
<!-- Node1&#45;&gt;Node9 -->
<g id="edge8_Node000001_Node000009" class="edge">
<title>Node1&#45;&gt;Node9</title>
<g id="a_edge8_Node000001_Node000009"><a xlink:title=" ">
<path fill="none" stroke="#63b8ff" d="M453.67,-207.51C437.5,-185.39 410.38,-153.04 379,-135 372.79,-131.43 366.09,-128.39 359.18,-125.8"/>
<polygon fill="#63b8ff" stroke="#63b8ff" points="450.86,-209.6 459.51,-215.72 456.56,-205.54 450.86,-209.6"/>
</a>
</g>
</g>
<!-- Node12 -->
<g id="Node000012" class="node">
<title>Node12</title>
<g id="a_Node000012"><a xlink:href="classApp_1_1Http_1_1Controllers_1_1PerfilController.html#a012e5db8d6febedf7f6cc7f448421c4e" target="_top" xlink:title=" ">
<polygon fill="white" stroke="#666666" points="379,-174 171,-174 171,-144 379,-144 379,-174"/>
<text text-anchor="start" x="179" y="-162" font-family="Helvetica,sans-Serif" font-size="10.00">App::Http::Controllers</text>
<text text-anchor="middle" x="275" y="-151" font-family="Helvetica,sans-Serif" font-size="10.00">::PerfilController::resolveProgramName</text>
</a>
</g>
</g>
<!-- Node1&#45;&gt;Node12 -->
<g id="edge12_Node000001_Node000012" class="edge">
<title>Node1&#45;&gt;Node12</title>
<g id="a_edge12_Node000001_Node000012"><a xlink:title=" ">
<path fill="none" stroke="#63b8ff" d="M436.5,-210.84C419.76,-201.31 398.81,-190.42 379,-183 370.06,-179.65 360.5,-176.67 350.94,-174.05"/>
<polygon fill="#63b8ff" stroke="#63b8ff" points="434.93,-213.98 445.34,-215.97 438.44,-207.92 434.93,-213.98"/>
</a>
</g>
</g>
<!-- Node13 -->
<g id="Node000013" class="node">
<title>Node13</title>
<g id="a_Node000013"><a xlink:href="classApp_1_1Http_1_1Controllers_1_1ProjectController.html#acc9c5eacfea40b9ea411d8a281058cf9" target="_top" xlink:title="Persist a new project idea following the role specific business rules.">
<polygon fill="white" stroke="#666666" points="342.5,-78 207.5,-78 207.5,-48 342.5,-48 342.5,-78"/>
<text text-anchor="start" x="215.5" y="-66" font-family="Helvetica,sans-Serif" font-size="10.00">App::Http::Controllers</text>
<text text-anchor="middle" x="275" y="-55" font-family="Helvetica,sans-Serif" font-size="10.00">::ProjectController::store</text>
</a>
</g>
</g>
<!-- Node1&#45;&gt;Node13 -->
<g id="edge14_Node000001_Node000013" class="edge">
<title>Node1&#45;&gt;Node13</title>
<g id="a_edge14_Node000001_Node000013"><a xlink:title=" ">
<path fill="none" stroke="#63b8ff" d="M460.7,-205.91C447.93,-173.31 421.09,-117 379,-87 368.31,-79.38 355.56,-74.14 342.73,-70.55"/>
<polygon fill="#63b8ff" stroke="#63b8ff" points="457.55,-207.48 464.35,-215.6 464.1,-205.01 457.55,-207.48"/>
</a>
</g>
</g>
<!-- Node14 -->
<g id="Node000014" class="node">
<title>Node14</title>
<g id="a_Node000014"><a xlink:href="classApp_1_1Http_1_1Controllers_1_1ProjectController.html#a3f7f9798f68cbee868a1a874e04495fb" target="_top" xlink:title="Update the project information by creating a new version with the submitted content.">
<polygon fill="white" stroke="#666666" points="347,-30 203,-30 203,0 347,0 347,-30"/>
<text text-anchor="start" x="211" y="-18" font-family="Helvetica,sans-Serif" font-size="10.00">App::Http::Controllers</text>
<text text-anchor="middle" x="275" y="-7" font-family="Helvetica,sans-Serif" font-size="10.00">::ProjectController::update</text>
</a>
</g>
</g>
<!-- Node1&#45;&gt;Node14 -->
<g id="edge15_Node000001_Node000014" class="edge">
<title>Node1&#45;&gt;Node14</title>
<g id="a_edge15_Node000001_Node000014"><a xlink:title=" ">
<path fill="none" stroke="#63b8ff" d="M464.97,-205.94C456.12,-164.57 432.53,-82.25 379,-39 369.79,-31.56 358.68,-26.34 347.22,-22.7"/>
<polygon fill="#63b8ff" stroke="#63b8ff" points="461.54,-206.66 466.95,-215.76 468.4,-205.27 461.54,-206.66"/>
</a>
</g>
</g>
<!-- Node7 -->
<g id="Node000007" class="node">
<title>Node7</title>
<g id="a_Node000007"><a xlink:href="classApp_1_1Http_1_1Controllers_1_1PerfilController.html#afb150068c01ca62055dc1f454164b6e0" target="_top" xlink:title=" ">
<polygon fill="white" stroke="#666666" points="131,-174 4,-174 4,-144 131,-144 131,-174"/>
<text text-anchor="start" x="12" y="-162" font-family="Helvetica,sans-Serif" font-size="10.00">App::Http::Controllers</text>
<text text-anchor="middle" x="67.5" y="-151" font-family="Helvetica,sans-Serif" font-size="10.00">::PerfilController::show</text>
</a>
</g>
</g>
<!-- Node6&#45;&gt;Node7 -->
<g id="edge6_Node000006_Node000007" class="edge">
<title>Node6&#45;&gt;Node7</title>
<g id="a_edge6_Node000006_Node000007"><a xlink:title=" ">
<path fill="none" stroke="#63b8ff" d="M185.45,-236.74C180.5,-234.99 175.65,-233.08 171,-231 138.25,-216.35 105.13,-190.67 85.73,-174.27"/>
<polygon fill="#63b8ff" stroke="#63b8ff" points="184.48,-240.11 195.07,-239.92 186.68,-233.46 184.48,-240.11"/>
</a>
</g>
</g>
<!-- Node9&#45;&gt;Node7 -->
<g id="edge10_Node000009_Node000007" class="edge">
<title>Node9&#45;&gt;Node7</title>
<g id="a_edge10_Node000009_Node000007"><a xlink:title=" ">
<path fill="none" stroke="#63b8ff" d="M199.5,-128.35C189.91,-130.59 180.22,-132.85 171,-135 158.1,-138.01 144.28,-141.25 131.1,-144.33"/>
<polygon fill="#63b8ff" stroke="#63b8ff" points="200.49,-131.71 209.44,-126.03 198.9,-124.89 200.49,-131.71"/>
</a>
</g>
</g>
<!-- Node10 -->
<g id="Node000010" class="node">
<title>Node10</title>
<g id="a_Node000010"><a xlink:href="classApp_1_1Http_1_1Controllers_1_1PerfilController.html#a22a47bc9936ec088641c820ee6776efc" target="_top" xlink:title=" ">
<polygon fill="white" stroke="#666666" points="128.5,-126 6.5,-126 6.5,-96 128.5,-96 128.5,-126"/>
<text text-anchor="start" x="14.5" y="-114" font-family="Helvetica,sans-Serif" font-size="10.00">App::Http::Controllers</text>
<text text-anchor="middle" x="67.5" y="-103" font-family="Helvetica,sans-Serif" font-size="10.00">::PerfilController::edit</text>
</a>
</g>
</g>
<!-- Node9&#45;&gt;Node10 -->
<g id="edge9_Node000009_Node000010" class="edge">
<title>Node9&#45;&gt;Node10</title>
<g id="a_edge9_Node000009_Node000010"><a xlink:title=" ">
<path fill="none" stroke="#63b8ff" d="M180.4,-111C162.78,-111 144.81,-111 128.56,-111"/>
<polygon fill="#63b8ff" stroke="#63b8ff" points="180.71,-114.5 190.71,-111 180.71,-107.5 180.71,-114.5"/>
</a>
</g>
</g>
<!-- Node11 -->
<g id="Node000011" class="node">
<title>Node11</title>
<g id="a_Node000011"><a xlink:href="classApp_1_1Http_1_1Controllers_1_1PerfilController.html#ac7fa2ae9f9879418589a3139da210a80" target="_top" xlink:title=" ">
<polygon fill="white" stroke="#666666" points="135,-78 0,-78 0,-48 135,-48 135,-78"/>
<text text-anchor="start" x="8" y="-66" font-family="Helvetica,sans-Serif" font-size="10.00">App::Http::Controllers</text>
<text text-anchor="middle" x="67.5" y="-55" font-family="Helvetica,sans-Serif" font-size="10.00">::PerfilController::update</text>
</a>
</g>
</g>
<!-- Node9&#45;&gt;Node11 -->
<g id="edge11_Node000009_Node000011" class="edge">
<title>Node9&#45;&gt;Node11</title>
<g id="a_edge11_Node000009_Node000011"><a xlink:title=" ">
<path fill="none" stroke="#63b8ff" d="M199.5,-93.65C189.91,-91.41 180.22,-89.15 171,-87 158.63,-84.11 145.42,-81.02 132.74,-78.05"/>
<polygon fill="#63b8ff" stroke="#63b8ff" points="198.9,-97.11 209.44,-95.97 200.49,-90.29 198.9,-97.11"/>
</a>
</g>
</g>
<!-- Node12&#45;&gt;Node7 -->
<g id="edge13_Node000012_Node000007" class="edge">
<title>Node12&#45;&gt;Node7</title>
<g id="a_edge13_Node000012_Node000007"><a xlink:title=" ">
<path fill="none" stroke="#63b8ff" d="M160.75,-159C150.58,-159 140.55,-159 131.07,-159"/>
<polygon fill="#63b8ff" stroke="#63b8ff" points="160.95,-162.5 170.95,-159 160.95,-155.5 160.95,-162.5"/>
</a>
</g>
</g>
</g>
</svg>
